<svg xmlns="http://www.w3.org/2000/svg" xmlns:xlink="http://www.w3.org/1999/xlink" xmlns:lucid="lucid" width="1215.98" height="840.93"><g transform="translate(-528 -19.070396615636803)" lucid:page-tab-id="vhtCl7AwOzjL"><path d="M1110.32 129.73l25.66 2.06 26 3.18 26.44 4.37 26.94 5.62 27.52 6.96 28.18 8.4 28.93 9.95 29.75 11.66 30.67 13.53 31.66 15.57 32.7 17.82 33.8 20.3 34.88 23 35.94 25.92 36.88 29.02 37.55 32.18 2.7 2.43 14.9 14.08 13.86 14.26 12.82 14.35 11.8 14.35 10.76 14.28 9.75 14.13 8.77 13.9 7.8 13.64 6.9 13.3 6.04 12.93 5.2 12.53 4.47 12.1 3.76 11.67 3.1 11.22 2.48 10.78 1.94 10.35 1.43 9.92.98 9.52.54 9.12.16 8.75-.2 8.37-.54 8.06-.84 7.73-1.12 7.44-1.4 7.16-1.64 6.9-1.88 6.65-2.1 6.43-2.34 6.22-2.56 6-2.77 5.84-3 5.65-3.2 5.5-3.4 5.35-3.66 5.2-3.88 5.1-4.13 4.94-4.4 4.84-4.65 4.72-4.95 4.62-5.26 4.5-5.6 4.42-5.96 4.3-6.36 4.2-6.8 4.08-7.28 3.96-7.8 3.85-8.4 3.7-9.05 3.54-9.77 3.37-10.6 3.15-11.53 2.9-12.57 2.63-13.77 2.28-15.12 1.86-16.68 1.33-18.48.7-20.56-.08-23-1.05-24.8-2.2.17-1.98 24.76 2.17 22.9 1.05 20.48.08 18.4-.7 16.6-1.33 15.04-1.84 13.68-2.27 12.5-2.6 11.44-2.9 10.52-3.13 9.7-3.34 8.97-3.52 8.3-3.67 7.74-3.8 7.2-3.92 6.74-4.04 6.3-4.15 5.9-4.26 5.52-4.36 5.2-4.45 4.9-4.56 4.6-4.66 4.32-4.77 4.07-4.9 3.83-5 3.6-5.14 3.37-5.3 3.16-5.42 2.95-5.58 2.74-5.76 2.52-5.94 2.3-6.13 2.1-6.35 1.85-6.57 1.63-6.82 1.38-7.07 1.12-7.35.83-7.65.53-7.97.2-8.3-.16-8.66-.53-9.04-.97-9.43-1.42-9.84-1.92-10.26-2.47-10.7-3.06-11.14-3.72-11.6-4.43-12-5.2-12.46-6-12.85-6.85-13.24-7.77-13.56-8.72-13.84-9.7-14.06-10.7-14.2-11.76-14.3-12.78-14.3-13.8-14.2-14.85-14.02-2.66-2.4-37.5-32.14-36.8-28.96-35.88-25.87-34.82-22.94-33.72-20.26-32.62-17.8-31.58-15.52-30.6-13.5-29.68-11.62-28.85-9.93-28.1-8.37-27.44-6.94-26.84-5.6-26.36-4.36-25.92-3.18-25.58-2.05-25.3-.97-25.1.1-24.97 1.14-24.92 2.18-24.92 3.25-25 4.33-25.2 5.45-25.42 6.64-25.75 7.9-26.14 9.2-26.65 10.68-27.24 12.26-27.95 14-28.75 15.97-10.52 6.4-1.04-1.7 10.54-6.43 28.84-16 28.02-14.05 27.33-12.3 26.73-10.7 26.23-9.24 25.8-7.9 25.52-6.66 25.26-5.48 25.1-4.35 25.02-3.26 25-2.2 25.05-1.14 25.18-.1z" fill="#c92d39"/><path d="M1442.12 779.1l-.18 2-.94-.1v-2zM737.36 233.87l-14.6 3.45 9.8-11.37z" fill="#c92d39"/><path d="M738.93 234.53L720 239l12.7-14.75zm-13.4 1.1l10.26-2.42-3.4-5.56z" fill="#c92d39"/><path d="M560 252c0-6.63 5.37-12 12-12h296c6.63 0 12 5.37 12 12v456c0 6.63-5.37 12-12 12H572c-6.63 0-12-5.37-12-12z" stroke="#ccc" stroke-width="2" fill="#fff"/><path d="M580 272c0-6.63 5.37-12 12-12h36c6.63 0 12 5.37 12 12v36c0 6.63-5.37 12-12 12h-36c-6.63 0-12-5.37-12-12z" stroke="#ccc" stroke-width="2" fill="#ccc"/><path d="M640 260h220v60H640z" stroke="#000" stroke-opacity="0" stroke-width="2" fill="#fff" fill-opacity="0"/><use xlink:href="#a" transform="matrix(1,0,0,1,645,265) translate(0 28.851666666666667)"/><use xlink:href="#b" transform="matrix(1,0,0,1,645,265) translate(72.02666666666667 28.851666666666667)"/><path d="M580 340h280v40H580z" stroke="#000" stroke-opacity="0" stroke-width="2" fill="#fff" fill-opacity="0"/><use xlink:href="#c" transform="matrix(1,0,0,1,585,345) translate(0 17.856)"/><use xlink:href="#d" transform="matrix(1,0,0,1,585,345) translate(91.26 17.856)"/><path d="M580 380h140v40H580z" stroke="#000" stroke-opacity="0" stroke-width="2" fill="#fff" fill-opacity="0"/><use xlink:href="#e" transform="matrix(1,0,0,1,585,385) translate(0 17.856)"/><use xlink:href="#f" transform="matrix(1,0,0,1,585,385) translate(53.513999999999996 17.856)"/><path d="M720 380h140v40H720z" stroke="#000" stroke-opacity="0" stroke-width="2" fill="#fff" fill-opacity="0"/><use xlink:href="#g" transform="matrix(1,0,0,1,725,385) translate(0 17.856)"/><use xlink:href="#f" transform="matrix(1,0,0,1,725,385) translate(36.413999999999994 17.856)"/><path d="M580 440h280v40H580z" stroke="#000" stroke-opacity="0" stroke-width="2" fill="#fff" fill-opacity="0"/><use xlink:href="#c" transform="matrix(1,0,0,1,585,445) translate(0 17.856)"/><use xlink:href="#h" transform="matrix(1,0,0,1,585,445) translate(91.26 17.856)"/><path d="M580 480h120v40H580z" stroke="#ccc" stroke-width="2" fill="#fff" fill-opacity="0"/><use xlink:href="#i" transform="matrix(1,0,0,1,585,485) translate(0 21.606)"/><path d="M720 480h140v40H720z" stroke="#ccc" stroke-width="2" fill="#fff"/><use xlink:href="#j" transform="matrix(1,0,0,1,725,485) translate(0 18.851666666666667)"/><use xlink:href="#k" transform="matrix(1,0,0,1,725,485) translate(3.4400000000000004 18.851666666666667)"/><use xlink:href="#l" transform="matrix(1,0,0,1,725,485) translate(38.36 18.851666666666667)"/><use xlink:href="#m" transform="matrix(1,0,0,1,725,485) translate(68.66666666666667 18.851666666666667)"/><path d="M710.4 587.2c5.3-3.98 13.9-3.98 19.2 0l60.8 45.6c5.3 3.98 5.3 10.42 0 14.4l-60.8 45.6c-5.3 3.98-13.9 3.98-19.2 0l-60.8-45.6c-5.3-3.98-5.3-10.42 0-14.4z" fill="#fff"/><path d="M716.97 584.56l.82-.2 4.68.03.56.14m3.9 1.15l2.66 1.5 2.28 1.7m3.04 2.3l4.56 3.4m3.04 2.3l4.56 3.4m3.04 2.3l4.56 3.4m3.04 2.3l4.56 3.4m3.04 2.3l4.56 3.4m3.04 2.3l4.56 3.4m3.04 2.3l4.56 3.4m3.04 2.3l2.28 1.7 1.83 1.78m1.67 2.92l.4 1.4.02 2.02-.4 1.58m-1.7 2.9l-1.6 1.63-.22.17-2.28 1.7m-3.04 2.3l-4.56 3.4m-3.04 2.3l-4.56 3.4m-3.04 2.3l-4.56 3.4m-3.04 2.3l-4.56 3.4m-3.04 2.3l-4.56 3.4m-3.04 2.3l-4.56 3.4m-3.04 2.3l-4.56 3.4m-3.04 2.3l-2.28 1.7-2.67 1.5m-3.9 1.14l-.82.2-4.68-.03-.56-.14m-3.9-1.15l-2.66-1.5-2.28-1.7m-3.04-2.3l-4.56-3.4m-3.04-2.3l-4.56-3.4m-3.04-2.3l-4.56-3.4m-3.04-2.3l-4.56-3.4m-3.04-2.3l-4.56-3.4m-3.04-2.3l-4.56-3.4m-3.04-2.3l-4.56-3.4m-3.04-2.3l-2.28-1.7-1.83-1.78m-1.67-2.92l-.4-1.4-.02-2.02.4-1.58m1.7-2.9l1.6-1.63.22-.17 2.28-1.7m3.04-2.3l4.56-3.4m3.04-2.3l4.56-3.4m3.04-2.3l4.56-3.4m3.04-2.3l4.56-3.4m3.04-2.3l4.56-3.4m3.04-2.3l4.56-3.4m3.04-2.3l4.56-3.4m3.04-2.3l2.28-1.7 2.67-1.5" stroke="#666" stroke-width="2" fill="none"/><path d="M738 675c0 9.94-8.06 18-18 18s-18-8.06-18-18 8.06-18 18-18 18 8.06 18 18z" fill="#666"/><path d="M704 674.97c0 8.84 7.16 16 16 16s16-7.16 16-16c0-8.5-6.63-15.45-15-15.97v15.97h-17z" fill="#e5e5e5"/><use xlink:href="#n" transform="matrix(1,0,0,1,645,585) translate(43.045 51.03916666666667)"/><use xlink:href="#o" transform="matrix(1,0,0,1,645,585) translate(101.765 51.03916666666667)"/><use xlink:href="#p" transform="matrix(1,0,0,1,645,585) translate(43.41166666666666 68.1325)"/><path d="M878 567.66H562v-6h316z" fill="#ccc"/><path d="M562.08 567.66H559v-6h3.08zM881 567.66h-3.08v-6H881z" fill="#ccc"/><path d="M875.58 603.48l-92.6 22.34-.46-1.94 93.06-22.46zm124.06-29.95L906.58 596v-2.06l92.6-22.35z" fill="#7ab648"/><path d="M783 625.82l-.18.05-2.08-1.56 1.8-.43zM1000.5 573.16l.08.14-.97.24-.46-1.95 1.08-.27z" fill="#7ab648"/><use xlink:href="#q" transform="matrix(1,0,0,1,875.5786722493888,587.9051480777338) translate(0 14.4)"/><path d="M958.3 703.6l-1.62 5.8-74.8-20.96v-6.23zm-100.33-28.08v6.23l-76.42-21.4 1.6-5.78z" fill="#c92d39"/><path d="M783.24 654.6l-1.62 5.77-5.18-1.45 6.05-4.54zM961.68 704.56l-.35.45-1 2.4-.33 2.6.05.33-3.44-.96 1.63-5.78z" fill="#c92d39"/><use xlink:href="#r" transform="matrix(1,0,0,1,857.9733909293991,671.1785494602318) translate(0 14.4)"/><path d="M1020 570c0 5.52-4.48 10-10 10s-10-4.48-10-10 4.48-10 10-10 10 4.48 10 10z" stroke="#000" stroke-opacity="0" stroke-width="2" fill="#7ab648"/><path d="M980 710c0 5.52-4.48 10-10 10s-10-4.48-10-10 4.48-10 10-10 10 4.48 10 10z" stroke="#000" stroke-opacity="0" stroke-width="2" fill="#c92d39"/><path d="M973.02 699.44l.8-2.78m1.05-3.72l1.6-5.57m1.06-3.7l1.6-5.58m1.05-3.72l1.6-5.57m1.05-3.7l1.6-5.57m1.05-3.7l1.6-5.58m1.05-3.7l1.6-5.58m1.05-3.7l1.6-5.58m1.06-3.72l1.6-5.57m1.05-3.7l1.58-5.57m1.06-3.72l1.6-5.55m1.05-3.72l.8-2.78" stroke="#999" stroke-width="2" fill="none"/><path d="M974 699.7l-.33 1.1-1.07-.46-.85-.1.3-1.1z" fill="#999"/><path d="M1006.38 582.67l.54 15-8.92-2.56z" stroke="#999" stroke-width="2" fill="#999"/><path d="M1120 252c0-6.63 5.37-12 12-12h296c6.63 0 12 5.37 12 12v301c0 6.63-5.37 12-12 12h-296c-6.63 0-12-5.37-12-12z" stroke="#ccc" stroke-width="2" fill="#fff"/><path d="M1021.34 563.88l71.83-21.66" stroke="#7ab648" stroke-width="6" fill="none"/><path d="M1022.28 566.73l-2.6.8-.02-.12-1-2.4-1.6-2.07-.83-.64 4.32-1.3z" fill="#7ab648"/><path d="M1109.7 537.23l-12.3 8.56-2.7-8.9z" stroke="#7ab648" stroke-width="6" fill="#7ab648"/><path d="M778.4 800.66l-6.03.2-.06-2 6.05-.2zm-12.94-1.88l2.86.03-.02 2-2.9-.02-3.18-.17.1-1.98zm23.08 1.1l-1.87.2-4.2.32-.14-2 4.15-.3 1.83-.2zm-35.28-2l5.08.5-.2 1.98-5.1-.5-.94-.12.27-1.98zm45.3.68l-3.95.62-2.06.24-.23-2 2.04-.22 3.9-.62zm-50.94-1.45l.76.1-.27 2-.8-.12-5.2-.94.37-1.96zm60.9-.35l-5.48 1.1-.5.08-.3-1.98.44-.07 5.44-1.1zm-71.42-1.77l1.47.33-.43 1.96-1.52-.33-4.38-1.18.52-1.93zm81.27-.5l-5.87 1.44-.48-1.94 5.87-1.44zm-90.9-2.3l1.48.47-.6 1.9-1.53-.48-4.2-1.52.66-1.88zm100.65-.38l-5.8 1.68-.56-1.92 5.8-1.68zm-113.8-5l4.23 1.95 1.04.43-.77 1.85-1.08-.45-4.3-1.97-.2-.1.9-1.77zm123.43 1.92l-5.73 1.92-.63-1.9 5.72-1.92zm9.5-3.45l-5.28 2.03-.4.13-.63-1.9.36-.12 5.25-2zm-141-2.8l3.97 2.25.35.17-.9 1.78-.4-.2-4.05-2.3-.9-.54 1.07-1.7zm150.4-.97l-3.65 1.57-1.98.76-.7-1.87 1.93-.74 3.6-1.56zm-158.05-4l3.4 2.32-1.1 1.66-3.46-2.35-1.54-1.14 1.2-1.62zm167.3-.07l-1.43.7-4.13 1.77-.8-1.83 4.1-1.77 1.4-.67zm9.08-4.38l-5.45 2.63-.87-1.8 5.45-2.63zm-183.67-1.22l2.63 2.13-1.26 1.55-2.66-2.14-1.98-1.77 1.32-1.5zm192.62-3.5l-5.33 2.85-.95-1.76 5.33-2.85zm-199.62-2.96l2.1 2.02-1.38 1.44-2.14-2.05-2.16-2.27 1.45-1.4zm208.43-2l-4.48 2.64-.77.43-.95-1.77.74-.4 4.45-2.62zM677.53 758l1.95 2.2-1.5 1.32-1.98-2.24-1.95-2.4 1.56-1.27zm223.88.17l-1.16.76-4.04 2.4-1-1.74 4-2.37 1.13-.74zm8.47-5.48l-5.07 3.28-1.1-1.68 5.08-3.28zm-238.9-3.2l2.2 2.97-1.62 1.2-2.22-3.02-1.32-1.94 1.67-1.1zm247.2-2.57l-4.92 3.5-1.16-1.63 4.92-3.5zm-253.6-7.3l2.88 4.65-1.7 1.05-2.9-4.7-.28-.5 1.74-.97zm261.77 1.32l-2.92 2.27-1.95 1.38-1.16-1.63 1.92-1.36 2.9-2.23zm8-6.2l-.16.14-4.66 3.6-1.22-1.6 4.62-3.57.12-.1zm-272.9-.7l.9 1.6-1.75.98-.92-1.62-1.9-3.76 1.77-.9zm280.6-5.8l-4.63 3.9-1.28-1.52 4.62-3.9zm-286.68-6.84l2.43 5.35-1.83.83-2.45-5.37-.07-.16 1.86-.75zm291.98 2.15l-2.23 2.05-1.34-1.48 2.22-2.04zm-294.93-9.37l1.4 3.38-1.86.75-1.4-3.4-.8-2.26 1.88-.68zm-2.85-7.97l.7 1.97-1.87.67-.72-2-1.18-3.78 1.9-.6zm-2.75-8.8l.4 1.22-1.92.6-.4-1.27-1.22-4.6 1.93-.5zm-2.6-9.82l.35 1.36-1.93.52-.38-1.4-1-4.53 1.95-.43zm-2.45-10.96l.57 2.54-1.96.44-.57-2.6-.62-3.37 1.97-.35zm-2.2-12.34l.9 5.03-1.97.36-.9-5.07-.14-.94 2-.27zm-.67-4.88l-1.98.27-.8-6 1.97-.26zm-1.3-9.94l-2 .18-.56-6.02 2-.18zm-1.42-15.1l.48 5.07-2 .18-.47-5.1-.05-.95 2-.1zm-.25-4.94l-2 .1-.3-6.03 2-.1zm-.67-13.38l.17 3.32-2 .1-.17-3.36-.03-2.72 2-.02zm-.06-6.7h-2l-.06-6.03h2zm-.08-16.08l-.06 1.5.04 4.5-2 .02-.04-4.53.05-1.56zm.32-10.07l-.2 6.03-2-.06.2-6.04zm.33-10.08l-.2 6.04-2-.06.2-6.04zm.6-10l-.44 6.02-2-.15.47-6.04zm.76-10.05l-.44 6.02-2-.16.46-6.02zm.77-10.05l-.46 6.03-1.98-.15.45-6.03zm1.05-9.97l-.7 6-2-.23.72-6zm1.18-10l-.7 6-2-.24.7-6zm1.17-10l-.7 6-2-.24.7-6zm.82-7.02l-.36 3-2-.23.36-3z" fill="#3aa6dd"/><path d="M642.2 505.04l-.1 1.02-2-.24.12-1zM950.6 725.47l-6.43-6.7 13.5-6.53z" fill="#3aa6dd"/><path d="M950.82 727.15l-8.33-8.67L960 710zm-4.98-8.07l4.52 4.7 4.97-9.3z" fill="#3aa6dd"/><path d="M1140 274.87c0-6.63 5.37-12 12-12h36c6.63 0 12 5.37 12 12v36c0 6.63-5.37 12-12 12h-36c-6.63 0-12-5.37-12-12z" stroke="#ccc" stroke-width="2" fill="#ccc"/><path d="M1200 262.87h220v60h-220z" stroke="#000" stroke-opacity="0" stroke-width="2" fill="#fff" fill-opacity="0"/><use xlink:href="#a" transform="matrix(1,0,0,1,1205,267.8687350286561) translate(0 28.851666666666667)"/><use xlink:href="#b" transform="matrix(1,0,0,1,1205,267.8687350286561) translate(72.02666666666667 28.851666666666667)"/><path d="M1140 342.87h280v40h-280z" stroke="#000" stroke-opacity="0" stroke-width="2" fill="#fff" fill-opacity="0"/><use xlink:href="#c" transform="matrix(1,0,0,1,1145,347.8687350286561) translate(0 17.856)"/><use xlink:href="#d" transform="matrix(1,0,0,1,1145,347.8687350286561) translate(91.26 17.856)"/><path d="M1140 382.87h140v40h-140z" stroke="#000" stroke-opacity="0" stroke-width="2" fill="#fff" fill-opacity="0"/><use xlink:href="#e" transform="matrix(1,0,0,1,1145,387.86873502865603) translate(0 17.856)"/><use xlink:href="#f" transform="matrix(1,0,0,1,1145,387.86873502865603) translate(53.513999999999996 17.856)"/><path d="M1280 382.87h140v40h-140z" stroke="#000" stroke-opacity="0" stroke-width="2" fill="#fff" fill-opacity="0"/><use xlink:href="#g" transform="matrix(1,0,0,1,1285,387.86873502865603) translate(0 17.856)"/><use xlink:href="#f" transform="matrix(1,0,0,1,1285,387.86873502865603) translate(36.413999999999994 17.856)"/><path d="M1140 442.87h280v40h-280z" stroke="#000" stroke-opacity="0" stroke-width="2" fill="#fff" fill-opacity="0"/><use xlink:href="#c" transform="matrix(1,0,0,1,1145,447.8687350286561) translate(0 17.856)"/><use xlink:href="#h" transform="matrix(1,0,0,1,1145,447.8687350286561) translate(91.26 17.856)"/><path d="M1140 482.87h140v40h-140z" stroke="#000" stroke-opacity="0" stroke-width="2" fill="#fff" fill-opacity="0"/><use xlink:href="#s" transform="matrix(1,0,0,1,1145,487.8687350286561) translate(0 17.856)"/><use xlink:href="#t" transform="matrix(1,0,0,1,1145,487.8687350286561) translate(55.907999999999994 17.856)"/><path d="M1280 482.87h140v40h-140z" stroke="#000" stroke-opacity="0" stroke-width="2" fill="#fff" fill-opacity="0"/><use xlink:href="#g" transform="matrix(1,0,0,1,1285,487.8687350286561) translate(0 17.856)"/><use xlink:href="#f" transform="matrix(1,0,0,1,1285,487.8687350286561) translate(36.413999999999994 17.856)"/><path d="M652.35 516.83c0 8.3-6.7 15-15 15-8.28 0-15-6.7-15-15 0-8.28 6.72-15 15-15 8.3 0 15 6.72 15 15z" stroke="#000" stroke-opacity="0" stroke-width="2" fill="#3aa6dd"/><use xlink:href="#u" transform="matrix(1,0,0,1,627.3509658366092,506.83319664456235) translate(5.005 15.7125)"/><path d="M580 535h277.05v30H580z" stroke="#000" stroke-opacity="0" stroke-width="2" fill="#fff" fill-opacity="0"/><use xlink:href="#v" transform="matrix(1,0,0,1,585,540) translate(0 13.226666666666667)"/><use xlink:href="#w" transform="matrix(1,0,0,1,585,540) translate(16.693333333333335 13.226666666666667)"/><use xlink:href="#x" transform="matrix(1,0,0,1,585,540) translate(61.760000000000005 13.226666666666667)"/><use xlink:href="#y" transform="matrix(1,0,0,1,585,540) translate(88.33333333333334 13.226666666666667)"/><use xlink:href="#z" transform="matrix(1,0,0,1,585,540) translate(122.82666666666668 13.226666666666667)"/><use xlink:href="#A" transform="matrix(1,0,0,1,585,540) translate(139.52 13.226666666666667)"/><use xlink:href="#B" transform="matrix(1,0,0,1,585,540) translate(188.41333333333336 13.226666666666667)"/><path d="M1443.12 400.35l16.6-16.8 15.2-16.7 12.4-14.9 10.25-13.36 8.48-12.1 7.05-11 5.88-10.1 4.9-9.28 4.1-8.62 3.43-8.02 2.84-7.52 2.33-7.07 1.9-6.7 1.5-6.33 1.18-6.03.88-5.78.6-5.54.36-5.34.12-5.17-.08-5-.3-4.87-.47-4.76-.67-4.66-.85-4.57-1.04-4.5-1.22-4.47-1.4-4.4-1.63-4.4-1.8-4.37-2.05-4.38-2.26-4.37-2.52-4.4-2.78-4.4-3.07-4.47-3.4-4.5-3.75-4.6-4.15-4.63-4.6-4.73-5.1-4.82-5.65-4.92-6.3-5.03-7.03-5.14-7.87-5.26-8.82-5.38-9.9-5.5-11.17-5.6-12.62-5.66-14.27-5.72-16.16-5.7-18.3-5.6-20.68-5.37-23.3-5.03-26.03-4.5-28.85-3.75-31.55-2.77-33.94-1.54-35.8-.13-36.93 1.4-37.22 2.98-36.65 4.48-35.34 5.83-33.46 6.97-31.17 7.86-28.7 8.53-26.2 9-23.78 9.3-21.5 9.45-19.34 9.5-17.43 9.5-15.7 9.4-14.12 9.3-12.72 9.18-11.5 9.03-10.38 8.88-9.4 8.75-8.52 8.63-7.72 8.5-7 8.4-1.5 1.95" stroke="#7ab648" stroke-width="6" fill="none"/><path d="M1445.3 402.4l-4.26 4.33-.04-.04v-8.47l.04-.04z" fill="#7ab648"/><path d="M725.57 231.05l4.38-14.35 7.6 5.32z" stroke="#7ab648" stroke-width="6" fill="#7ab648"/><path d="M1120 732c0-6.63 5.37-12 12-12h296c6.63 0 12 5.37 12 12v96c0 6.63-5.37 12-12 12h-296c-6.63 0-12-5.37-12-12z" stroke="#ccc" stroke-width="2" fill="#fff"/><path d="M980.96 710.28l120.26 34.6" stroke="#c92d39" stroke-width="2" fill="none"/><path d="M981.26 709.32l-.55 1.92-.86-.25.16-1-.14-1.08z" fill="#c92d39"/><path d="M1115.9 749.1l-15 .5 2.56-8.9z" stroke="#c92d39" stroke-width="2" fill="#c92d39"/><path d="M1140 780h120v40h-120z" stroke="#ccc" stroke-width="2" fill="#fff" fill-opacity="0"/><g><use xlink:href="#i" transform="matrix(1,0,0,1,1145,785) translate(0 17.856)"/></g><path d="M1140 740h280v40h-280z" stroke="#000" stroke-opacity="0" stroke-width="2" fill="#fff" fill-opacity="0"/><g><use xlink:href="#c" transform="matrix(1,0,0,1,1145,745) translate(0 17.856)"/><use xlink:href="#h" transform="matrix(1,0,0,1,1145,745) translate(91.26 17.856)"/></g><path d="M728.93 500c0 8.28-6.48 15-14.47 15-7.98 0-14.46-6.72-14.46-15 0-8.28 6.48-15 14.46-15 8 0 14.47 6.72 14.47 15z" stroke="#000" stroke-opacity="0" stroke-width="2" fill="#fcc438"/><g><use xlink:href="#C" transform="matrix(1,0,0,1,705,490) translate(3.505 15.7125)"/></g><path d="M588.3 500c0 8.28-6.34 15-14.15 15-7.82 0-14.15-6.72-14.15-15 0-8.28 6.33-15 14.15-15 7.8 0 14.15 6.72 14.15 15z" stroke="#000" stroke-opacity="0" stroke-width="2" fill="#fcc438"/><g><use xlink:href="#D" transform="matrix(1,0,0,1,565,490) translate(2.5299999999999994 15.7125)"/></g><path d="M1140 500c0 8.28-6.48 15-14.46 15-8 0-14.47-6.72-14.47-15 0-8.28 6.48-15 14.47-15 7.98 0 14.46 6.72 14.46 15z" stroke="#000" stroke-opacity="0" stroke-width="2" fill="#fcc438"/><g><use xlink:href="#E" transform="matrix(1,0,0,1,1116.0705300131037,490) translate(3.0299999999999994 15.7125)"/></g><path d="M1280 780h140v40h-140z" stroke="#ccc" stroke-width="2" fill="#fff"/><g><use xlink:href="#j" transform="matrix(1,0,0,1,1285,785) translate(0 18.851666666666667)"/><use xlink:href="#k" transform="matrix(1,0,0,1,1285,785) translate(3.4400000000000004 18.851666666666667)"/><use xlink:href="#l" transform="matrix(1,0,0,1,1285,785) translate(38.36 18.851666666666667)"/><use xlink:href="#m" transform="matrix(1,0,0,1,1285,785) translate(68.66666666666667 18.851666666666667)"/></g><defs><path d="M313 114c-111-1-176-67-176-187v-169c-2-55-26-65-82-71v-71c54-6 80-17 82-71 4-117-16-256 51-310 35-29 75-46 125-46v68c-61 0-93 45-93 110v134c2 93-24 133-98 149v2c74 17 98 57 98 150v134c-1 65 32 110 93 110v68" id="F"/><path d="M520-635H179v242h302v72H179V0H90v-708h430v73" id="G"/><path d="M172 0H87v-509h85V0zm-42-631c-37 0-55-19-56-52 0-36 19-54 56-54s55 18 55 54c-1 33-19 52-55 52" id="H"/><path d="M353-447c-118-18-182 64-182 174V0H86c-3-170 7-349-7-509h81c5 22 3 54 9 81 32-70 98-104 189-92" id="I"/><path d="M41-381c-4-162 252-177 353-88l-38 53c-39-27-82-41-128-41-98 0-143 107-54 139 97 35 229 46 229 174C403 35 133 53 25-45l39-53c42 28 78 41 142 45 80 4 134-58 99-129-26-31-59-35-113-51-89-25-148-50-151-148" id="J"/><path d="M328 1C218 40 105-8 105-130v-314H15v-55l89-10v-125l86-30v155h135v65H190v307c-6 76 60 95 125 75" id="K"/><path d="M90-708h102c138 196 274 394 414 588l-2-588h83V0H585C447-196 311-394 171-588l2 588H90v-708" id="L"/><path d="M206 14C109 15 40-41 42-139c1-169 156-177 340-175 7-97-33-143-126-142-54 0-105 14-153 43l-30-57c57-35 120-53 188-53 141 0 204 63 206 202 1 110-5 220 7 321h-78c-5-29-7-52-7-69h-3c-38 54-89 83-180 83zm22-67c89-2 148-53 154-135v-66s-251-9-252 110c0 59 38 91 98 91" id="M"/><path d="M315-453c-88 0-144 74-144 161V0H86c-3-170 7-349-7-509h81c5 17 3 46 9 72 30-48 90-86 168-86 89 0 140 43 168 103 32-60 90-104 179-103 122 1 187 78 187 197V0h-85v-314c-1-78-37-142-120-139-97 3-146 77-146 174V0h-85v-316c-1-77-39-137-120-137" id="N"/><path d="M288-523c162-3 241 129 226 299H136c6 100 61 171 167 170 70-1 110-20 156-50l38 55c-54 38-112 62-199 63C141 16 48-99 50-257c3-159 80-263 238-266zm145 233c-2-96-49-168-146-168-96 0-149 75-152 168h298" id="O"/><g id="a"><use transform="matrix(0.013333333333333334,0,0,0.013333333333333334,0,0)" xlink:href="#F"/><use transform="matrix(0.013333333333333334,0,0,0.013333333333333334,4.906666666666667,0)" xlink:href="#G"/><use transform="matrix(0.013333333333333334,0,0,0.013333333333333334,11.813333333333334,0)" xlink:href="#H"/><use transform="matrix(0.013333333333333334,0,0,0.013333333333333334,15.253333333333334,0)" xlink:href="#I"/><use transform="matrix(0.013333333333333334,0,0,0.013333333333333334,20.10666666666667,0)" xlink:href="#J"/><use transform="matrix(0.013333333333333334,0,0,0.013333333333333334,26.000000000000004,0)" xlink:href="#K"/><use transform="matrix(0.013333333333333334,0,0,0.013333333333333334,30.76000000000001,0)" xlink:href="#L"/><use transform="matrix(0.013333333333333334,0,0,0.013333333333333334,41.10666666666667,0)" xlink:href="#M"/><use transform="matrix(0.013333333333333334,0,0,0.013333333333333334,48.38666666666667,0)" xlink:href="#N"/><use transform="matrix(0.013333333333333334,0,0,0.013333333333333334,61.053333333333335,0)" xlink:href="#O"/></g><path d="M179-75h324V0H90v-708h89v633" id="P"/><path d="M55-811c107 2 176 69 176 187v169c2 54 28 65 82 71v71c-56 6-80 16-82 71-3 116 16 256-49 310-34 28-74 46-127 46V46c61 0 93-45 93-110v-134c-2-93 24-133 98-150v-2c-74-16-98-56-98-149v-134c1-65-32-110-93-110v-68" id="Q"/><g id="b"><use transform="matrix(0.013333333333333334,0,0,0.013333333333333334,0,0)" xlink:href="#P"/><use transform="matrix(0.013333333333333334,0,0,0.013333333333333334,6.746666666666667,0)" xlink:href="#M"/><use transform="matrix(0.013333333333333334,0,0,0.013333333333333334,14.026666666666667,0)" xlink:href="#J"/><use transform="matrix(0.013333333333333334,0,0,0.013333333333333334,19.92,0)" xlink:href="#K"/><use transform="matrix(0.013333333333333334,0,0,0.013333333333333334,24.680000000000003,0)" xlink:href="#L"/><use transform="matrix(0.013333333333333334,0,0,0.013333333333333334,35.02666666666667,0)" xlink:href="#M"/><use transform="matrix(0.013333333333333334,0,0,0.013333333333333334,42.30666666666667,0)" xlink:href="#N"/><use transform="matrix(0.013333333333333334,0,0,0.013333333333333334,54.97333333333335,0)" xlink:href="#O"/><use transform="matrix(0.013333333333333334,0,0,0.013333333333333334,62.50666666666667,0)" xlink:href="#Q"/></g><path d="M334 119c-131-1-205-73-205-212v-148c-2-49-23-53-78-57v-104c55-4 77-8 78-57 2-122-12-253 57-308 40-32 88-52 148-52v100c-96-4-84 107-83 202 2 102-21 148-104 166v2c83 18 106 64 104 166-1 95-13 206 83 202v100" id="R"/><path d="M485 12c41 67 114 79 228 79v107c-199 1-313-45-368-183C155-12 44-142 44-354c0-231 130-373 362-373s359 142 362 373c3 198-110 339-283 366zM178-354c0 154 74 260 228 260s228-106 228-260-74-260-228-260-228 106-228 260" id="S"/><path d="M269 14C141 14 72-75 72-200v-320h126v301c0 78 28 134 105 134 81 0 128-71 128-153v-282h125c4 175-9 357 9 520H445c-6-24-5-47-10-61-37 50-92 75-166 75" id="T"/><path d="M295-534c175 0 256 137 237 320H170c10 80 57 129 145 129 69-1 102-19 149-47l54 80c-56 41-119 66-211 66C138 14 46-91 44-260c-2-161 90-274 251-274zm117 226c-3-74-41-132-118-132-79 0-120 59-125 132h243" id="U"/><path d="M39-378c0-175 271-194 382-101l-50 79c-41-25-82-38-123-38-83 0-118 83-42 107 98 31 223 49 223 175C429 33 141 56 23-45l54-78c39 24 75 33 132 40 84 10 127-92 48-118-99-33-218-48-218-177" id="V"/><path d="M266 14c-103 1-166-60-165-163v-271H15v-80l85-15v-123l126-44v167h129v95H226v259c-6 69 55 85 113 68l18 92c-25 10-56 15-91 15" id="W"/><path d="M203 0H78v-520h125V0zm-62-611c-51 0-77-26-77-71 0-48 26-72 77-72s77 26 77 72c0 45-28 71-77 71" id="X"/><path d="M314-534c172 0 271 101 271 272C585-92 485 14 314 14 144 14 44-93 44-262c0-171 98-272 270-272zm0 100c-102 0-140 71-140 172 0 102 39 177 141 177s142-75 142-177-40-172-143-172" id="Y"/><path d="M330-430c-79 0-127 62-127 141V0H78c-4-180 9-350-9-520h120c5 20 4 44 10 60 33-43 94-75 172-74 122 1 190 74 190 190V0H436v-317c-1-69-32-113-106-113" id="Z"/><g id="c"><use transform="matrix(0.018,0,0,0.018,0,0)" xlink:href="#R"/><use transform="matrix(0.018,0,0,0.018,6.93,0)" xlink:href="#S"/><use transform="matrix(0.018,0,0,0.018,21.546,0)" xlink:href="#T"/><use transform="matrix(0.018,0,0,0.018,32.958,0)" xlink:href="#U"/><use transform="matrix(0.018,0,0,0.018,43.379999999999995,0)" xlink:href="#V"/><use transform="matrix(0.018,0,0,0.018,51.678,0)" xlink:href="#W"/><use transform="matrix(0.018,0,0,0.018,58.608,0)" xlink:href="#X"/><use transform="matrix(0.018,0,0,0.018,63.684,0)" xlink:href="#Y"/><use transform="matrix(0.018,0,0,0.018,75.024,0)" xlink:href="#Z"/></g><path d="M581-411l-45 174h110v78H515L474 0h-99l42-159H257L216 0h-99l42-159H47v-78h132l46-174H114v-79h132l41-158h98l-41 158h160l41-158h98l-41 158h111v79H581zm-98 0H323l-45 174h159" id="aa"/><path d="M559-108V0H90v-107h190v-469l-179 86-50-93 242-125h118v600h148" id="ab"/><path d="M51-819c126 1 205 76 205 212v148c2 49 23 53 78 57v104c-55 4-77 8-78 57-2 120 10 255-56 309-39 32-86 51-149 51V19c96 4 84-107 83-202-2-102 21-148 104-166v-2c-83-18-106-64-104-166 1-95 13-206-83-202v-100" id="ac"/><path d="M256-726c135 0 233 70 233 201 0 134-119 169-187 239-15 17-20 32-19 57H163c-23-168 184-155 192-291 3-61-46-100-109-99-81 2-117 34-161 81L7-606c58-72 127-120 249-120zm42 661c0 48-24 75-75 75s-76-25-76-75 25-75 76-75 75 27 75 75" id="ad"/><g id="d"><use transform="matrix(0.018,0,0,0.018,0,0)" xlink:href="#aa"/><use transform="matrix(0.018,0,0,0.018,13.68,0)" xlink:href="#ab"/><use transform="matrix(0.018,0,0,0.018,24.659999999999997,0)" xlink:href="#ac"/><use transform="matrix(0.018,0,0,0.018,31.589999999999996,0)" xlink:href="#ad"/></g><path d="M540-633H317V0h-89v-633H4v-75h536v75" id="ae"/><path d="M324-452c-91 0-152 70-152 160V0H87v-708h85c1 89-3 184 2 270 34-50 90-85 174-85 123 0 188 80 188 194V0h-85v-312c-1-82-40-140-127-140" id="af"/><g id="e"><use transform="matrix(0.018,0,0,0.018,0,0)" xlink:href="#F"/><use transform="matrix(0.018,0,0,0.018,6.624,0)" xlink:href="#ae"/><use transform="matrix(0.018,0,0,0.018,16.433999999999997,0)" xlink:href="#af"/><use transform="matrix(0.018,0,0,0.018,27.503999999999998,0)" xlink:href="#O"/><use transform="matrix(0.018,0,0,0.018,37.674,0)" xlink:href="#H"/><use transform="matrix(0.018,0,0,0.018,42.318,0)" xlink:href="#I"/></g><path d="M495-172H163L97 0H4l280-708h93L655 0h-96zm-307-69h282L329-624" id="ag"/><path d="M323-452c-91 0-152 70-152 160V0H86c-3-170 7-349-7-509h81c5 17 3 46 9 72 33-51 94-86 177-86 122 0 189 80 189 194V0h-85v-312c-1-82-40-140-127-140" id="ah"/><path d="M613 0h-95c-45-139-86-282-134-418L254 0h-94L17-509h89c36 138 67 281 106 417l129-417h92c44 139 85 281 132 417l105-417h86" id="ai"/><g id="f"><use transform="matrix(0.018,0,0,0.018,0,0)" xlink:href="#ag"/><use transform="matrix(0.018,0,0,0.018,11.879999999999999,0)" xlink:href="#ah"/><use transform="matrix(0.018,0,0,0.018,22.932,0)" xlink:href="#J"/><use transform="matrix(0.018,0,0,0.018,30.887999999999998,0)" xlink:href="#ai"/><use transform="matrix(0.018,0,0,0.018,44.78399999999999,0)" xlink:href="#O"/><use transform="matrix(0.018,0,0,0.018,54.95399999999999,0)" xlink:href="#I"/><use transform="matrix(0.018,0,0,0.018,61.50599999999999,0)" xlink:href="#Q"/></g><path d="M834 0h-87c-1-201 4-407 0-605L493 0h-67c-85-201-167-406-255-605l2 605H90v-708h131c81 196 158 395 241 589l240-589h132V0" id="aj"/><path d="M245 124c-31 80-63 130-160 133-26 0-50-4-71-12l17-63C159 220 168 89 202 3L4-509h92c50 139 97 282 150 419l136-419h87" id="ak"/><g id="g"><use transform="matrix(0.018,0,0,0.018,0,0)" xlink:href="#F"/><use transform="matrix(0.018,0,0,0.018,6.624,0)" xlink:href="#aj"/><use transform="matrix(0.018,0,0,0.018,23.237999999999992,0)" xlink:href="#ak"/></g><path d="M292-726c146 0 256 75 256 213 0 119-48 165-120 235-42 41-110 97-203 170h342V0H55v-100c157-141 240-191 331-312 66-88 12-214-105-207-79 5-121 36-167 81l-78-68c66-71 129-120 256-120" id="al"/><g id="h"><use transform="matrix(0.018,0,0,0.018,0,0)" xlink:href="#aa"/><use transform="matrix(0.018,0,0,0.018,13.68,0)" xlink:href="#al"/><use transform="matrix(0.018,0,0,0.018,24.659999999999997,0)" xlink:href="#ac"/><use transform="matrix(0.018,0,0,0.018,31.589999999999996,0)" xlink:href="#ad"/></g><path d="M246-724c151-4 255 121 197 265-28 71-120 113-167 167-18 21-21 40-20 74h-81c-18-179 190-162 194-315 2-74-53-119-129-118-87 1-127 36-173 84l-54-46c57-65 119-108 233-111zM216 8c-38 0-55-20-56-55 0-37 19-56 56-56s55 19 55 56c0 35-18 55-55 55" id="am"/><g id="i"><use transform="matrix(0.018,0,0,0.018,0,0)" xlink:href="#am"/><use transform="matrix(0.018,0,0,0.018,9.053999999999998,0)" xlink:href="#am"/><use transform="matrix(0.018,0,0,0.018,18.107999999999997,0)" xlink:href="#am"/></g><path fill="#999" d="M341-522c102-3 166 43 166 130 0 66-34 112-101 138s-160 42-279 47c-3 96 44 154 139 153 68-1 105-18 152-44l29 53C388-7 341 13 252 14 122 16 45-65 47-193c3-191 104-324 294-329zm84 131c0-51-32-69-91-69-117 0-181 88-200 191 112-9 192-11 256-53 24-15 35-39 35-69" id="an"/><path fill="#999" d="M384-522c111 0 167 81 150 194L482 0h-81c17-119 53-232 53-355 0-66-31-99-92-99-191 0-210 265-237 454H44c24-171 58-329 74-508h75c0 36-4 71-11 105h2c32-63 107-119 200-119" id="ao"/><path fill="#999" d="M282 2C190 33 71 8 81-96c11-119 35-233 52-349H45l9-53 90-10 19-125 86-29-24 154h132l-10 63H214c-17 113-37 221-51 337-6 56 65 62 114 47" id="ap"/><path fill="#999" d="M181-392c36-80 81-126 180-130 14 0 24 2 31 5l-15 73c-74-15-116 16-158 84-58 93-73 230-94 360H44c24-171 58-328 74-508h75c0 26-5 65-14 116h2" id="aq"/><g id="k"><use transform="matrix(0.013333333333333334,0,0,0.013333333333333334,0,0)" xlink:href="#an"/><use transform="matrix(0.013333333333333334,0,0,0.013333333333333334,7.12,0)" xlink:href="#ao"/><use transform="matrix(0.013333333333333334,0,0,0.013333333333333334,15.133333333333335,0)" xlink:href="#ap"/><use transform="matrix(0.013333333333333334,0,0,0.013333333333333334,19.706666666666667,0)" xlink:href="#an"/><use transform="matrix(0.013333333333333334,0,0,0.013333333333333334,26.826666666666668,0)" xlink:href="#aq"/></g><path fill="#999" d="M-40 195C69 167 112 101 158 3L43-508h85c27 141 52 284 81 423l201-423h87L226 29C162 153 120 222-23 258" id="ar"/><path fill="#999" d="M338-522c135-3 220 77 218 208C553-126 450 8 264 14 130 18 46-68 48-199c3-187 104-318 290-323zm-5 65c-139 4-202 115-202 256 0 91 46 153 139 150 139-4 203-116 203-258 0-92-46-150-140-148" id="as"/><path fill="#999" d="M226 14C111 14 49-70 68-187l51-321h81c-17 120-53 233-53 359 0 63 31 95 94 95 205 0 202-266 235-454h81c-24 169-60 330-74 508h-74c-2-22 1-53 9-94h-2C383-36 313 14 226 14" id="at"/><g id="l"><use transform="matrix(0.013333333333333334,0,0,0.013333333333333334,0,0)" xlink:href="#ar"/><use transform="matrix(0.013333333333333334,0,0,0.013333333333333334,6.146666666666667,0)" xlink:href="#as"/><use transform="matrix(0.013333333333333334,0,0,0.013333333333333334,14.200000000000005,0)" xlink:href="#at"/><use transform="matrix(0.013333333333333334,0,0,0.013333333333333334,22.21333333333334,0)" xlink:href="#aq"/></g><path fill="#999" d="M47-192c1-227 165-376 406-317 32 8 64 24 97 46-21 154-54 300-66 463h-75c0-29 3-59 8-91h-2C372-21 310 14 227 14 110 14 47-74 47-192zm85-8c-2 84 38 149 118 149 110 0 173-115 189-222l24-156c-34-19-66-27-115-27-143 0-213 111-216 256" id="au"/><path fill="#999" d="M61-369c-7-166 255-193 362-101l-39 51c-39-27-82-40-128-40-63 0-113 23-113 82s47 63 110 84c84 28 128 71 128 136C381 30 109 57-6-43l40-52c72 60 267 76 262-52-2-61-43-70-104-91-72-25-128-52-131-131" id="av"/><path fill="#999" d="M555 0h-88c-22-140-40-284-65-421L207 0h-93L55-508h83c14 140 22 284 39 421l193-421h89c22 140 39 284 63 421l170-421h84" id="aw"/><g id="m"><use transform="matrix(0.013333333333333334,0,0,0.013333333333333334,0,0)" xlink:href="#au"/><use transform="matrix(0.013333333333333334,0,0,0.013333333333333334,7.960000000000001,0)" xlink:href="#ao"/><use transform="matrix(0.013333333333333334,0,0,0.013333333333333334,15.973333333333334,0)" xlink:href="#av"/><use transform="matrix(0.013333333333333334,0,0,0.013333333333333334,21.866666666666667,0)" xlink:href="#aw"/><use transform="matrix(0.013333333333333334,0,0,0.013333333333333334,31.826666666666668,0)" xlink:href="#an"/><use transform="matrix(0.013333333333333334,0,0,0.013333333333333334,38.946666666666665,0)" xlink:href="#aq"/></g><path fill="#666" d="M540-200C550 52 170 69 26-64l63-83c71 67 317 99 317-48 0-96-79-102-162-127-111-33-193-77-195-204-4-228 334-244 479-129l-59 85c-50-30-95-49-167-50-67 0-123 23-123 86 0 82 64 84 147 110 123 38 208 79 214 224" id="ax"/><path fill="#666" d="M670 0H538v-311H211V0H80v-708h131v292h327v-292h132V0" id="ay"/><path fill="#666" d="M406 19C174 19 44-123 44-354s130-373 362-373 363 142 363 373S638 19 406 19zm0-113c155 0 229-105 229-260s-74-260-229-260c-154 0-228 106-228 260S252-94 406-94" id="az"/><path fill="#666" d="M369 19C188 19 71-79 72-256v-452h131v442c1 116 47 172 166 172s166-56 166-172v-442h131v452C667-79 550 19 369 19" id="aA"/><path fill="#666" d="M211-109h306V0H80v-708h131v599" id="aB"/><path fill="#666" d="M321-708c238 0 378 113 376 353C695-123 558 0 326 0H80v-708h241zm241 353c0-168-80-245-246-246H210v493h103c166-1 249-79 249-247" id="aC"/><g id="n"><use transform="matrix(0.013333333333333334,0,0,0.013333333333333334,0,0)" xlink:href="#ax"/><use transform="matrix(0.013333333333333334,0,0,0.013333333333333334,7.666666666666667,0)" xlink:href="#ay"/><use transform="matrix(0.013333333333333334,0,0,0.013333333333333334,17.653333333333336,0)" xlink:href="#az"/><use transform="matrix(0.013333333333333334,0,0,0.013333333333333334,28.48,0)" xlink:href="#aA"/><use transform="matrix(0.013333333333333334,0,0,0.013333333333333334,38.32000000000001,0)" xlink:href="#aB"/><use transform="matrix(0.013333333333333334,0,0,0.013333333333333334,45.26666666666667,0)" xlink:href="#aC"/></g><path fill="#666" d="M259-99h83V0H48v-99h83v-513H48v-96h294v96h-83v513" id="aD"/><use transform="matrix(0.013333333333333334,0,0,0.013333333333333334,0,0)" xlink:href="#aD" id="o"/><path fill="#666" d="M479-153H191L134 0H-3l272-708h135L675 0H533zM226-253h219L336-574" id="aE"/><path fill="#666" d="M80-708h149c118 176 232 354 352 528l-3-528h121V0H550C432-176 318-355 198-529l4 529H80v-708" id="aF"/><path fill="#666" d="M788 0H659L500-540h-3L341 0H211L7-708h135l139 534h3l150-534h133l151 534h3l142-534h129" id="aG"/><path fill="#666" d="M527-603H211v189h270v101H211v206h333V0H80v-708h447v105" id="aH"/><path fill="#666" d="M328-708c153-1 267 84 267 237 0 100-48 168-143 205L621 0H471L331-240H211V0H80v-708h248zm132 237c0-87-59-132-141-132H210v263h111c82 0 139-45 139-131" id="aI"/><path fill="#666" d="M256-726c135 0 233 70 233 201 0 134-119 169-187 239-15 17-20 32-19 57H163c-23-168 184-155 192-291 3-61-46-100-109-99-81 2-117 34-161 81L7-606c58-72 127-120 249-120zm42 661c0 48-24 75-75 75s-76-25-76-75 25-75 76-75 75 27 75 75" id="aJ"/><g id="p"><use transform="matrix(0.013333333333333334,0,0,0.013333333333333334,0,0)" xlink:href="#aE"/><use transform="matrix(0.013333333333333334,0,0,0.013333333333333334,8.973333333333334,0)" xlink:href="#aF"/><use transform="matrix(0.013333333333333334,0,0,0.013333333333333334,19.36,0)" xlink:href="#ax"/><use transform="matrix(0.013333333333333334,0,0,0.013333333333333334,26.96,0)" xlink:href="#aG"/><use transform="matrix(0.013333333333333334,0,0,0.013333333333333334,40.29333333333334,0)" xlink:href="#aH"/><use transform="matrix(0.013333333333333334,0,0,0.013333333333333334,47.866666666666674,0)" xlink:href="#aI"/><use transform="matrix(0.013333333333333334,0,0,0.013333333333333334,56.16000000000002,0)" xlink:href="#aJ"/></g><path fill="#7ab648" d="M146-102V0H94v-102L6-248h54l60 105 60-105h54" id="aK"/><path fill="#7ab648" d="M185-48c-13 30-37 53-82 52C43 2 14-33 14-96s30-98 90-98c62 0 83 45 84 108H66c0 31 8 55 39 56 18 0 30-7 34-22zm-45-69c5-46-57-63-70-21-2 6-4 13-4 21h74" id="aL"/><path fill="#7ab648" d="M137-138c1-29-70-34-71-4 15 46 118 7 119 86 1 83-164 76-172 9l43-7c4 19 20 25 44 25 33 8 57-30 24-41C81-84 22-81 20-136c-2-80 154-74 161-7" id="aM"/><g id="q"><use transform="matrix(0.05,0,0,0.05,0,0)" xlink:href="#aK"/><use transform="matrix(0.05,0,0,0.05,11,0)" xlink:href="#aL"/><use transform="matrix(0.05,0,0,0.05,21,0)" xlink:href="#aM"/></g><path fill="#c92d39" d="M175 0L67-191c6 58 2 128 3 191H24v-248h59L193-55c-6-58-2-129-3-193h46V0h-61" id="aN"/><path fill="#c92d39" d="M110-194c64 0 96 36 96 99 0 64-35 99-97 99-61 0-95-36-95-99 0-62 34-99 96-99zm-1 164c35 0 45-28 45-65 0-40-10-65-43-65-34 0-45 26-45 65 0 36 10 65 43 65" id="aO"/><g id="r"><use transform="matrix(0.05,0,0,0.05,0,0)" xlink:href="#aN"/><use transform="matrix(0.05,0,0,0.05,12.950000000000001,0)" xlink:href="#aO"/></g><path fill="#fcc438" d="M334 119c-131-1-205-73-205-212v-148c-2-49-23-53-78-57v-104c55-4 77-8 78-57 2-122-12-253 57-308 40-32 88-52 148-52v100c-96-4-84 107-83 202 2 102-21 148-104 166v2c83 18 106 64 104 166-1 95-13 206 83 202v100" id="aP"/><path fill="#fcc438" d="M561-598H348V0H217v-598H4v-110h557v110" id="aQ"/><path fill="#fcc438" d="M330-430c-78 0-127 63-127 141V0H78v-708h125c1 81-3 167 2 245 38-47 94-71 167-71 121 0 189 79 189 190V0H436v-317c-1-69-32-113-106-113" id="aR"/><path fill="#fcc438" d="M295-534c175 0 256 137 237 320H170c10 80 57 129 145 129 69-1 102-19 149-47l54 80c-56 41-119 66-211 66C138 14 46-91 44-260c-2-161 90-274 251-274zm117 226c-3-74-41-132-118-132-79 0-120 59-125 132h243" id="aS"/><path fill="#fcc438" d="M203 0H78v-520h125V0zm-62-611c-51 0-77-26-77-71 0-48 26-72 77-72s77 26 77 72c0 45-28 71-77 71" id="aT"/><path fill="#fcc438" d="M380-422c-108-21-177 50-177 149V0H78c-4-180 9-350-9-520h120c6 28 5 55 10 72 34-65 100-96 186-82" id="aU"/><g id="s"><use transform="matrix(0.018,0,0,0.018,0,0)" xlink:href="#aP"/><use transform="matrix(0.018,0,0,0.018,6.93,0)" xlink:href="#aQ"/><use transform="matrix(0.018,0,0,0.018,17.1,0)" xlink:href="#aR"/><use transform="matrix(0.018,0,0,0.018,28.512,0)" xlink:href="#aS"/><use transform="matrix(0.018,0,0,0.018,38.934,0)" xlink:href="#aT"/><use transform="matrix(0.018,0,0,0.018,44.01,0)" xlink:href="#aU"/></g><path fill="#fcc438" d="M479-153H191L134 0H-3l272-708h135L675 0H533zM226-253h219L336-574" id="aV"/><path fill="#fcc438" d="M330-430c-79 0-127 62-127 141V0H78c-4-180 9-350-9-520h120c5 20 4 44 10 60 33-43 94-75 172-74 122 1 190 74 190 190V0H436v-317c-1-69-32-113-106-113" id="aW"/><path fill="#fcc438" d="M39-378c0-175 271-194 382-101l-50 79c-41-25-82-38-123-38-83 0-118 83-42 107 98 31 223 49 223 175C429 33 141 56 23-45l54-78c39 24 75 33 132 40 84 10 127-92 48-118-99-33-218-48-218-177" id="aX"/><path fill="#fcc438" d="M660 0H524c-41-127-77-259-120-384L289 0H154L9-520h132c30 126 55 257 88 381l114-381h130c40 126 75 257 117 381l88-381h127" id="aY"/><path fill="#fcc438" d="M51-819c126 1 205 76 205 212v148c2 49 23 53 78 57v104c-55 4-77 8-78 57-2 120 10 255-56 309-39 32-86 51-149 51V19c96 4 84-107 83-202-2-102 21-148 104-166v-2c-83-18-106-64-104-166 1-95 13-206-83-202v-100" id="aZ"/><g id="t"><use transform="matrix(0.018,0,0,0.018,0,0)" xlink:href="#aV"/><use transform="matrix(0.018,0,0,0.018,12.113999999999999,0)" xlink:href="#aW"/><use transform="matrix(0.018,0,0,0.018,23.507999999999996,0)" xlink:href="#aX"/><use transform="matrix(0.018,0,0,0.018,31.805999999999997,0)" xlink:href="#aY"/><use transform="matrix(0.018,0,0,0.018,46.458,0)" xlink:href="#aS"/><use transform="matrix(0.018,0,0,0.018,56.879999999999995,0)" xlink:href="#aU"/><use transform="matrix(0.018,0,0,0.018,63.93599999999999,0)" xlink:href="#aZ"/></g><path fill="#fff" d="M27 0v-27h64v-190l-56 39v-29l58-41h29v221h61V0H27" id="ba"/><use transform="matrix(0.05,0,0,0.05,0,0)" xlink:href="#ba" id="u"/><path d="M219 14C115 14 67-53 84-161l41-263H41l13-77 86-14 18-122 128-43-26 165h126l-14 91H245c-14 98-32 192-44 293-6 48 62 53 103 40l6 92c-26 9-56 13-91 13" id="bb"/><path d="M345-532c142-3 235 78 233 214C575-125 463 8 272 14 132 18 39-72 42-207c4-191 112-321 303-325zm-7 95c-116 0-173 111-172 230 0 77 38 129 116 126 121-4 174-107 174-232 0-78-38-124-118-124" id="bc"/><g id="v"><use transform="matrix(0.013333333333333334,0,0,0.013333333333333334,0,0)" xlink:href="#bb"/><use transform="matrix(0.013333333333333334,0,0,0.013333333333333334,4.933333333333334,0)" xlink:href="#bc"/></g><path d="M211-415c39-84 95-128 208-112l-21 110c-76-15-118 14-158 83-49 83-66 216-85 334H35c24-176 60-331 74-518h112c0 25-4 60-12 103h2" id="bd"/><path d="M339-532c114-3 185 47 185 143 0 66-32 113-98 141s-154 45-265 49c3 76 44 114 121 114 63-1 94-15 138-40l43 78C399-7 357 13 261 14 125 16 40-67 42-201c3-193 105-325 297-331zm63 144c0-41-24-54-71-54-95 1-144 70-162 153 91-7 157-9 207-44 18-12 26-32 26-55" id="be"/><path d="M280 0H148L41-518h126l64 397h3l185-397h129" id="bf"/><path d="M40-194c0-236 173-387 423-324 35 10 70 27 107 51-21 157-57 298-66 467H393c-2-31 4-59 3-75-42 58-86 87-177 89C100 16 40-74 40-194zm125-11c-1 71 28 124 92 124 140 0 167-193 184-335-29-15-54-20-96-20-124 0-177 105-180 231" id="bg"/><path d="M268-708L156 0H36l112-708h120" id="bh"/><path d="M119-136c109 3 61 152 21 208-24 34-62 75-118 120l-39-42C36 101 69 69 88-1 54-6 37-25 37-57c0-47 33-81 82-79" id="bi"/><g id="w"><use transform="matrix(0.013333333333333334,0,0,0.013333333333333334,0,0)" xlink:href="#bd"/><use transform="matrix(0.013333333333333334,0,0,0.013333333333333334,4.8933333333333335,0)" xlink:href="#be"/><use transform="matrix(0.013333333333333334,0,0,0.013333333333333334,12.04,0)" xlink:href="#bf"/><use transform="matrix(0.013333333333333334,0,0,0.013333333333333334,18.773333333333333,0)" xlink:href="#be"/><use transform="matrix(0.013333333333333334,0,0,0.013333333333333334,26,0)" xlink:href="#bg"/><use transform="matrix(0.013333333333333334,0,0,0.013333333333333334,34.13333333333333,0)" xlink:href="#bh"/><use transform="matrix(0.013333333333333334,0,0,0.013333333333333334,37.78666666666667,0)" xlink:href="#bi"/></g><path d="M-31 164C71 144 118 92 156 4L41-518h126c22 130 40 265 65 393l174-393h129L264 32C201 159 144 227-7 258" id="bj"/><path d="M225 14C110 16 42-69 60-186l52-332h120c-18 121-42 236-54 361-9 87 106 83 156 41 98-81 101-253 129-402h120c-24 174-61 333-74 518H398c-2-24 0-50 7-78h-2c-32 49-101 91-178 92" id="bk"/><g id="x"><use transform="matrix(0.013333333333333334,0,0,0.013333333333333334,0,0)" xlink:href="#bj"/><use transform="matrix(0.013333333333333334,0,0,0.013333333333333334,6.573333333333334,0)" xlink:href="#bc"/><use transform="matrix(0.013333333333333334,0,0,0.013333333333333334,14.840000000000002,0)" xlink:href="#bk"/></g><path d="M404-532c110 0 173 80 156 191L505 0H385c17-119 44-232 54-356 8-98-106-89-155-37-83 88-108 244-129 393H35c24-176 60-331 74-518h112c1 28-1 58-8 90h2c31-53 108-104 189-104" id="bl"/><path d="M320-532c64-2 106 15 142 43l35-219h120l-93 590c-5 37-9 76-10 118H403c-2-31 4-59 3-75-43 58-88 87-179 89C104 16 39-71 41-194c4-187 95-332 279-338zM166-205c-2 74 31 124 100 124 132 0 167-177 181-314-29-27-69-41-120-41-115 0-158 113-161 231" id="bm"/><g id="y"><use transform="matrix(0.013333333333333334,0,0,0.013333333333333334,0,0)" xlink:href="#bl"/><use transform="matrix(0.013333333333333334,0,0,0.013333333333333334,8.24,0)" xlink:href="#be"/><use transform="matrix(0.013333333333333334,0,0,0.013333333333333334,15.466666666666667,0)" xlink:href="#be"/><use transform="matrix(0.013333333333333334,0,0,0.013333333333333334,22.693333333333335,0)" xlink:href="#bm"/></g><g id="z"><use transform="matrix(0.013333333333333334,0,0,0.013333333333333334,0,0)" xlink:href="#bb"/><use transform="matrix(0.013333333333333334,0,0,0.013333333333333334,4.933333333333334,0)" xlink:href="#bc"/></g><path d="M57-365c0-181 276-209 392-113l-56 75c-39-25-79-37-120-37-84 0-122 58-73 100 13 11 40 20 78 31 85 25 127 73 127 141C405 31 116 59-9-44l56-76c41 27 85 41 134 41 66 0 99-24 99-72 0-52-39-58-94-76-85-29-129-72-129-138" id="bn"/><path d="M602 0H475c-19-129-34-262-56-388L243 0H110L51-518h124c9 128 14 261 26 386l172-386h128c19 128 32 261 54 386l147-386h124" id="bo"/><g id="A"><use transform="matrix(0.013333333333333334,0,0,0.013333333333333334,0,0)" xlink:href="#bg"/><use transform="matrix(0.013333333333333334,0,0,0.013333333333333334,8.133333333333335,0)" xlink:href="#bl"/><use transform="matrix(0.013333333333333334,0,0,0.013333333333333334,16.373333333333335,0)" xlink:href="#bn"/><use transform="matrix(0.013333333333333334,0,0,0.013333333333333334,22.493333333333336,0)" xlink:href="#bo"/><use transform="matrix(0.013333333333333334,0,0,0.013333333333333334,33.02666666666667,0)" xlink:href="#be"/><use transform="matrix(0.013333333333333334,0,0,0.013333333333333334,40.30666666666667,0)" xlink:href="#bd"/></g><path d="M40-194c0-237 173-387 423-324 35 10 70 27 107 51L458 244H338l57-311h-2c-42 52-86 80-174 81C100 16 40-74 40-194zm125-11c-1 71 28 124 92 124 140 0 167-193 184-335-29-15-54-20-96-20-124 0-177 105-180 231" id="bp"/><path d="M156 0H36l82-518h120zm39-614c-41 0-65-18-65-55 0-50 30-83 84-83 41 0 65 18 65 55 0 50-30 83-84 83" id="bq"/><g id="B"><use transform="matrix(0.013333333333333334,0,0,0.013333333333333334,0,0)" xlink:href="#bp"/><use transform="matrix(0.013333333333333334,0,0,0.013333333333333334,8.213333333333335,0)" xlink:href="#bk"/><use transform="matrix(0.013333333333333334,0,0,0.013333333333333334,16.453333333333333,0)" xlink:href="#be"/><use transform="matrix(0.013333333333333334,0,0,0.013333333333333334,23.733333333333334,0)" xlink:href="#bn"/><use transform="matrix(0.013333333333333334,0,0,0.013333333333333334,29.853333333333335,0)" xlink:href="#bb"/><use transform="matrix(0.013333333333333334,0,0,0.013333333333333334,34.85333333333334,0)" xlink:href="#bq"/><use transform="matrix(0.013333333333333334,0,0,0.013333333333333334,38.506666666666675,0)" xlink:href="#bc"/><use transform="matrix(0.013333333333333334,0,0,0.013333333333333334,46.77333333333334,0)" xlink:href="#bl"/></g><path fill="#fff" d="M205 0l-28-72H64L36 0H1l101-248h38L239 0h-34zm-38-99l-47-123c-12 45-31 82-46 123h93" id="br"/><use transform="matrix(0.05,0,0,0.05,0,0)" xlink:href="#br" id="C"/><path fill="#fff" d="M212-179c-10-28-35-45-73-45-59 0-87 40-87 99 0 60 29 101 89 101 43 0 62-24 78-52l27 14C228-24 195 4 139 4 59 4 22-46 18-125c-6-104 99-153 187-111 19 9 31 26 39 46" id="bs"/><use transform="matrix(0.05,0,0,0.05,0,0)" xlink:href="#bs" id="D"/><path fill="#fff" d="M233-177c-1 41-23 64-60 70L243 0h-38l-65-103H63V0H30v-248c88 3 205-21 203 71zM63-129c60-2 137 13 137-47 0-61-80-42-137-45v92" id="bt"/><use transform="matrix(0.05,0,0,0.05,0,0)" xlink:href="#bt" id="E"/></defs></g></svg>